<svg version="1.1" id="Layer_1" xmlns="http://www.w3.org/2000/svg" xmlns:xlink="http://www.w3.org/1999/xlink" x="0px" y="0px"
	 width="100%" viewBox="0 0 1024 1024" enable-background="new 0 0 1024 1024" xml:space="preserve">

<path fill="#FFFFFF" opacity="1.000000" stroke="none" 
	d="
M322.000000,924.972412 
	C292.838470,924.874939 264.071472,924.510254 236.280014,916.819092 
	C167.221375,897.707581 124.298416,852.991394 107.980110,783.078430 
	C101.462013,755.152771 101.334221,726.622986 101.271049,698.219604 
	C100.997169,575.074341 101.010445,451.927765 101.276588,328.782471 
	C101.322571,307.505829 102.145119,286.137421 104.270393,264.978241 
	C108.680756,221.068939 125.666397,182.660645 157.980759,151.885056 
	C177.667267,133.135971 200.438004,119.163086 226.736435,111.904305 
	C239.794052,108.300201 253.299957,106.085815 266.734406,104.157707 
	C276.957886,102.690437 287.380280,102.437141 297.729309,102.067131 
	C307.160004,101.729958 316.611084,101.972145 326.053131,101.942619 
	C425.519318,101.631645 524.985352,101.278130 624.451721,101.035347 
	C645.726013,100.983429 667.001038,101.398994 688.276123,101.460785 
	C697.511597,101.487610 706.767029,100.715515 715.979919,101.102989 
	C730.439636,101.711151 744.872070,102.978271 759.314026,103.995506 
	C777.230347,105.257446 794.474976,109.381454 811.294006,115.677429 
	C828.299683,122.043289 843.803772,130.975403 857.780762,142.425858 
	C892.083374,170.527771 913.195312,206.526962 919.815491,250.386597 
	C922.633972,269.059113 924.669922,288.052460 924.725525,306.906860 
	C925.131226,444.382782 925.055298,581.860657 924.849792,719.337463 
	C924.806213,748.475586 922.634155,777.615417 912.573730,805.244995 
	C891.957092,861.865906 852.497437,898.976746 794.502991,915.834595 
	C769.702148,923.043762 744.065613,924.761475 718.429749,924.806274 
	C586.453491,925.037109 454.476654,924.950012 322.000000,924.972412 
M284.081360,765.789795 
	C284.090546,746.210388 284.099731,726.630981 285.032227,707.026428 
	C391.759521,707.023315 498.486816,707.021301 605.214111,707.009277 
	C607.207703,707.009094 609.201355,706.890686 612.026672,706.918030 
	C621.092041,707.187805 625.252869,704.622437 628.422791,696.648254 
	C628.432190,696.111755 628.441589,695.575317 628.662292,694.120667 
	C628.685791,691.460388 628.728760,688.800171 628.729980,686.139893 
	C628.753174,635.750916 628.771423,585.361938 629.751709,534.894165 
	C661.202271,534.888184 692.652893,534.860657 724.103455,534.884949 
	C740.574524,534.897705 757.045532,535.001343 773.548035,535.991211 
	C773.553650,576.811768 773.538940,617.632385 773.581543,658.452942 
	C773.590271,666.806213 779.122314,672.506897 787.070435,672.624207 
	C794.773438,672.737854 800.979309,667.056458 800.984924,659.344055 
	C801.017761,614.526672 800.930298,569.709290 801.026245,524.024963 
	C802.596802,513.742920 795.587952,506.696259 783.990295,506.796356 
	C732.330505,507.242310 680.664734,506.994049 628.791504,506.079376 
	C628.776001,466.940369 628.774109,427.801361 628.736816,388.662354 
	C628.725403,376.674683 628.616699,364.687073 628.729980,352.174133 
	C628.653442,351.816559 628.576904,351.458984 628.663025,350.165283 
	C628.670349,306.093628 628.677673,262.021973 629.628601,217.663422 
	C666.182983,217.693573 702.737366,217.723724 739.849670,218.165619 
	C752.196289,247.283371 787.848389,250.587708 806.520996,230.224564 
	C824.010803,211.151428 817.512695,178.194901 793.734314,167.955505 
	C771.401123,158.338440 749.752075,167.202118 738.537720,190.001602 
	C698.047241,189.989853 657.554260,190.217789 617.067932,189.801682 
	C606.648438,189.694595 599.177368,197.450684 601.041931,208.013992 
	C601.028259,218.665207 601.018127,229.316422 601.000305,239.967636 
	C600.947327,271.586243 600.891357,303.204865 599.920044,334.831238 
	C490.787354,334.832367 381.654175,334.973114 272.522675,334.613464 
	C261.899323,334.578430 254.121307,342.331207 256.202301,352.941345 
	C256.182068,397.419769 256.149963,441.898163 256.185028,486.376556 
	C256.186432,488.154266 256.526978,490.058594 257.220215,491.686432 
	C259.898071,497.974304 266.522491,501.292358 273.185669,499.907318 
	C279.593292,498.575409 283.963043,493.137360 283.968628,486.188721 
	C284.001831,444.875031 283.990143,403.561340 284.921234,362.102142 
	C389.437042,362.091461 493.952820,362.080414 598.468628,362.075928 
	C599.298096,362.075867 600.127563,362.164368 600.972351,363.113525 
	C600.980225,406.925934 600.976685,450.738342 601.004395,494.550751 
	C601.010803,504.708801 601.123962,514.866760 601.033691,525.948975 
	C601.022766,566.034363 601.024902,606.119690 600.992615,646.205078 
	C600.983704,657.345215 600.872864,668.485291 599.898682,679.663879 
	C490.536652,679.674011 381.174591,679.682617 271.812561,679.696838 
	C260.720001,679.698303 255.558105,685.203918 256.179169,697.029480 
	C256.103027,720.261902 256.026917,743.494263 255.225677,766.868713 
	C239.289001,773.488098 228.996384,789.967590 230.495224,806.464600 
	C232.031296,823.371399 244.239120,838.200012 259.676941,841.910950 
	C277.459900,846.185730 294.167542,839.590759 303.922943,824.446106 
	C317.114868,803.966309 306.975708,774.373535 284.081360,765.789795 
z"/>
<path fill="#BD55AE" opacity="1.000000" stroke="none" 
	d="
M611.194946,706.827454 
	C609.201355,706.890686 607.207703,707.009094 605.214111,707.009277 
	C498.486816,707.021301 391.759521,707.023315 284.095032,707.022583 
	C279.660828,707.012512 276.130890,706.697021 272.673584,707.064575 
	C265.549377,707.822083 258.971680,704.162964 256.358551,696.130005 
	C255.558105,685.203918 260.720001,679.698303 271.812561,679.696838 
	C381.174591,679.682617 490.536652,679.674011 600.422729,680.140991 
	C600.964539,683.590881 601.168274,686.576477 600.964417,689.533936 
	C600.401428,697.701050 603.490723,703.602539 611.194946,706.827454 
z"/>
<path fill="#17C66B" opacity="1.000000" stroke="none" 
	d="
M600.957031,362.211548 
	C600.127563,362.164368 599.298096,362.075867 598.468628,362.075928 
	C493.952820,362.080414 389.437042,362.091461 283.996887,362.101837 
	C279.612091,362.084290 276.130768,361.815277 272.695465,362.100342 
	C264.677673,362.765686 259.510498,359.096924 256.367493,352.013428 
	C254.121307,342.331207 261.899323,334.578430 272.522675,334.613464 
	C381.654175,334.973114 490.787354,334.832367 600.439941,335.302979 
	C600.973267,339.061829 601.101318,342.353241 600.976990,345.635132 
	C600.685730,353.326447 603.627380,358.957092 610.525635,361.948639 
	C607.033142,362.058380 603.995117,362.134949 600.957031,362.211548 
z"/>
<path fill="#FF0202" opacity="1.000000" stroke="none" 
	d="
M739.557556,190.136963 
	C749.752075,167.202118 771.401123,158.338440 793.734314,167.955505 
	C817.512695,178.194901 824.010803,211.151428 806.520996,230.224564 
	C787.848389,250.587708 752.196289,247.283371 739.575806,217.552887 
	C736.544189,207.978622 736.437744,199.042404 739.557556,190.136963 
z"/>
<path fill="#1877C8" opacity="1.000000" stroke="none" 
	d="
M600.964722,362.662537 
	C603.995117,362.134949 607.033142,362.058380 610.969910,361.966583 
	C619.357422,362.742157 625.103027,360.416229 628.131470,352.919800 
	C628.292175,352.894592 628.552551,352.699432 628.552551,352.699432 
	C628.616699,364.687073 628.725403,376.674683 628.736816,388.662354 
	C628.774109,427.801361 628.776001,466.940369 628.889404,507.006042 
	C629.184509,518.238586 630.733337,529.042603 618.585571,534.973267 
	C609.957092,535.981079 604.779175,531.853638 601.187988,525.024780 
	C601.123962,514.866760 601.010803,504.708801 601.004395,494.550751 
	C600.976685,450.738342 600.980225,406.925934 600.964722,362.662537 
z"/>
<path fill="#4E82B7" opacity="1.000000" stroke="none" 
	d="
M619.026489,534.961548 
	C630.733337,529.042603 629.184509,518.238586 628.994202,507.464722 
	C680.664734,506.994049 732.330505,507.242310 783.990295,506.796356 
	C795.587952,506.696259 802.596802,513.742920 800.693237,524.678955 
	C797.497986,532.149841 792.258423,535.091980 784.995239,534.933472 
	C781.171814,534.849976 777.342957,535.012512 773.516541,535.063965 
	C757.045532,535.001343 740.574524,534.897705 724.103455,534.884949 
	C692.652893,534.860657 661.202271,534.888184 628.832825,534.953735 
	C624.951477,534.996033 621.988953,534.978821 619.026489,534.961548 
z"/>
<path fill="#0F7BAE" opacity="1.000000" stroke="none" 
	d="
M618.585571,534.973267 
	C621.988953,534.978821 624.951477,534.996033 628.352356,534.993103 
	C628.771423,585.361938 628.753174,635.750916 628.729980,686.139893 
	C628.728760,688.800171 628.685791,691.460388 628.387573,694.790283 
	C628.084045,695.991150 628.055176,696.522339 628.026245,697.053528 
	C625.252869,704.622437 621.092041,707.187805 611.610840,706.872742 
	C603.490723,703.602539 600.401428,697.701050 600.964417,689.533936 
	C601.168274,686.576477 600.964539,683.590881 600.877747,680.121765 
	C600.872864,668.485291 600.983704,657.345215 600.992615,646.205078 
	C601.024902,606.119690 601.022766,566.034363 601.110840,525.486877 
	C604.779175,531.853638 609.957092,535.981079 618.585571,534.973267 
z"/>
<path fill="#623721" opacity="1.000000" stroke="none" 
	d="
M627.970703,352.945038 
	C625.103027,360.416229 619.357422,362.742157 611.424316,361.933441 
	C603.627380,358.957092 600.685730,353.326447 600.976990,345.635132 
	C601.101318,342.353241 600.973267,339.061829 600.898193,335.299103 
	C600.891357,303.204865 600.947327,271.586243 601.000305,239.967636 
	C601.018127,229.316422 601.028259,218.665207 601.340942,207.783371 
	C603.969910,214.009659 608.396606,217.289307 615.431885,217.209381 
	C619.846191,217.159225 624.267090,217.683685 628.684998,217.950348 
	C628.677673,262.021973 628.670349,306.093628 628.406250,350.810730 
	C628.089905,351.952454 628.030334,352.448761 627.970703,352.945038 
z"/>
<path fill="#6E2D70" opacity="1.000000" stroke="none" 
	d="
M256.284912,352.477386 
	C259.510498,359.096924 264.677673,362.765686 272.695465,362.100342 
	C276.130768,361.815277 279.612091,362.084290 283.533020,362.174591 
	C283.990143,403.561340 284.001831,444.875031 283.968628,486.188721 
	C283.963043,493.137360 279.593292,498.575409 273.185669,499.907318 
	C266.522491,501.292358 259.898071,497.974304 257.220215,491.686432 
	C256.526978,490.058594 256.186432,488.154266 256.185028,486.376556 
	C256.149963,441.898163 256.182068,397.419769 256.284912,352.477386 
z"/>
<path fill="#6CA63B" opacity="1.000000" stroke="none" 
	d="
M629.156799,217.806885 
	C624.267090,217.683685 619.846191,217.159225 615.431885,217.209381 
	C608.396606,217.289307 603.969910,214.009659 601.402283,207.324341 
	C599.177368,197.450684 606.648438,189.694595 617.067932,189.801682 
	C657.554260,190.217789 698.047241,189.989853 739.047607,190.069275 
	C736.437744,199.042404 736.544189,207.978622 739.296814,217.347015 
	C702.737366,217.723724 666.182983,217.693573 629.156799,217.806885 
z"/>
<path fill="#27B935" opacity="1.000000" stroke="none" 
	d="
M773.532288,535.527588 
	C777.342957,535.012512 781.171814,534.849976 784.995239,534.933472 
	C792.258423,535.091980 797.497986,532.149841 800.621887,525.112427 
	C800.930298,569.709290 801.017761,614.526672 800.984924,659.344055 
	C800.979309,667.056458 794.773438,672.737854 787.070435,672.624207 
	C779.122314,672.506897 773.590271,666.806213 773.581543,658.452942 
	C773.538940,617.632385 773.553650,576.811768 773.532288,535.527588 
z"/>
<path fill="#048103" opacity="1.000000" stroke="none" 
	d="
M284.131592,766.682251 
	C306.975708,774.373535 317.114868,803.966309 303.922943,824.446106 
	C294.167542,839.590759 277.459900,846.185730 259.676941,841.910950 
	C244.239120,838.200012 232.031296,823.371399 230.495224,806.464600 
	C228.996384,789.967590 239.289001,773.488098 255.650497,767.281738 
	C256.099976,779.326782 256.052948,790.959595 256.173218,802.590698 
	C256.260925,811.069214 261.655670,816.925598 269.361755,817.202942 
	C277.833282,817.507935 283.820038,811.822083 283.937469,803.068665 
	C284.100159,790.941223 284.075836,778.811157 284.131592,766.682251 
z"/>
<path fill="#A25EAE" opacity="1.000000" stroke="none" 
	d="
M284.106476,766.236023 
	C284.075836,778.811157 284.100159,790.941223 283.937469,803.068665 
	C283.820038,811.822083 277.833282,817.507935 269.361755,817.202942 
	C261.655670,816.925598 256.260925,811.069214 256.173218,802.590698 
	C256.052948,790.959595 256.099976,779.326782 256.013062,767.210693 
	C256.026917,743.494263 256.103027,720.261902 256.268860,696.579712 
	C258.971680,704.162964 265.549377,707.822083 272.673584,707.064575 
	C276.130890,706.697021 279.660828,707.012512 283.633362,707.035156 
	C284.099731,726.630981 284.090546,746.210388 284.106476,766.236023 
z"/>
<path fill="#6CA63B" opacity="1.000000" stroke="none" 
	d="
M628.131470,352.919800 
	C628.030334,352.448761 628.089905,351.952454 628.324890,351.278809 
	C628.576904,351.458984 628.653442,351.816559 628.641235,352.436768 
	C628.552551,352.699432 628.292175,352.894592 628.131470,352.919800 
z"/>
<path fill="#4E82B7" opacity="1.000000" stroke="none" 
	d="
M628.224487,696.850891 
	C628.055176,696.522339 628.084045,695.991150 628.281921,695.249390 
	C628.441589,695.575317 628.432190,696.111755 628.224487,696.850891 
z"/>
</svg>